<?xml version="1.0" encoding="utf-8"?>
<!-- Generator: Adobe Illustrator 22.1.0, SVG Export Plug-In . SVG Version: 6.00 Build 0)  -->
<svg version="1.1" id="Icons" xmlns="http://www.w3.org/2000/svg" xmlns:xlink="http://www.w3.org/1999/xlink" x="0px" y="0px"
	 viewBox="0 0 104 36" style="enable-background:new 0 0 104 36;" xml:space="preserve">
<style type="text/css">
	.st0{fill:#FFFFFF;}
	.st1{fill:#FFBC00;}
</style>
<g>
	<path class="st0" d="M38.8,36h-8.2l3.2-16.3L22.1,36H17l-5.3-16.3L8.5,36H0.2l7-36h8.2l6.8,22.1L37.6,0h8.2L38.8,36z"/>
	<path class="st1" d="M101.8,3.2C100.1,1.1,97.7,0,94.6,0H72.3l-5.4,27.8h4.8L70,36h-4.8l0,0h22.4c3,0,5.9-1.1,8.5-3.2
		c2.6-2.2,4.2-4.8,4.8-7.8c0.4-2.2-0.1-4.5-1.6-6.9c2.5-2.4,3.9-4.8,4.3-6.9C104.1,8,103.6,5.4,101.8,3.2z M95.3,11.1
		c-0.2,0.8-0.6,1.5-1.2,2c-0.7,0.5-1.4,0.8-2.2,0.8h-9.5l-1.7,8.2h9.6c0.8,0,1.4,0.3,1.8,0.8s0.6,1.2,0.4,2c-0.1,0.8-0.6,1.5-1.2,2
		c-0.7,0.5-1.4,0.8-2.2,0.8H75.1l3.8-19.5H93c0.8,0,1.4,0.3,1.8,0.8S95.5,10.3,95.3,11.1z"/>
	<path class="st0" d="M70,36H43.7l7-36H59l-5.4,27.8h18L70,36z"/>
</g>
</svg>
